<?xml version="1.0" standalone="no"?>
<!DOCTYPE svg PUBLIC "-//W3C//DTD SVG 20010904//EN"
 "http://www.w3.org/TR/2001/REC-SVG-20010904/DTD/svg10.dtd">
<svg version="1.0" xmlns="http://www.w3.org/2000/svg"
 width="457.000000pt" height="368.000000pt" viewBox="0 0 457.000000 368.000000"
 preserveAspectRatio="xMidYMid meet">

<g transform="translate(0.000000,368.000000) scale(0.100000,-0.100000)"
fill="#000000" stroke="none">
<path d="M370 2750 l0 -340 70 0 70 0 0 145 0 145 150 0 150 0 0 -145 0 -145
70 0 70 0 0 340 0 341 -67 -3 -68 -3 -3 -137 -3 -138 -149 0 -149 0 -3 138 -3
137 -67 3 -68 3 0 -341z"/>
<path d="M1590 2750 l0 -340 70 0 70 0 -2 338 -3 337 -67 3 -68 3 0 -341z"/>
<path d="M1827 3083 c-4 -3 -7 -156 -7 -340 l0 -333 70 0 70 0 0 340 0 340
-63 0 c-35 0 -67 -3 -70 -7z"/>
<path d="M2643 2923 c4 -91 7 -192 7 -225 l0 -58 60 0 60 0 0 98 c0 53 3 154
7 225 l6 127 -73 0 -73 0 6 -167z"/>
<path d="M1174 2901 c-49 -23 -107 -88 -122 -140 -19 -62 -15 -169 9 -221 44
-96 106 -134 224 -134 64 -1 88 4 122 22 43 23 86 70 98 110 6 21 4 22 -59 22
-38 0 -66 -4 -66 -10 0 -15 -62 -50 -88 -50 -41 0 -90 30 -106 65 -32 66 -35
65 160 65 l177 0 -7 53 c-12 88 -29 130 -71 172 -22 23 -58 46 -81 53 -60 17
-142 15 -190 -7z m177 -110 c17 -17 29 -40 29 -55 l0 -26 -98 0 c-54 0 -101 3
-105 6 -3 3 -1 19 5 35 25 72 115 93 169 40z"/>
<path d="M2184 2904 c-89 -32 -145 -121 -146 -234 -1 -156 74 -250 215 -266
158 -19 277 91 277 256 0 154 -101 261 -244 259 -34 0 -79 -7 -102 -15z m160
-113 c64 -54 61 -219 -5 -265 -26 -18 -81 -21 -110 -6 -53 29 -73 172 -33 241
32 54 102 69 148 30z"/>
<path d="M2659 2532 c-50 -41 -17 -122 51 -122 45 0 70 24 70 68 0 63 -71 94
-121 54z"/>
<path d="M2294 1972 c-10 -5 -154 -370 -154 -387 0 -3 8 -5 18 -5 13 0 24 16
39 58 l20 57 85 3 85 3 23 -61 c16 -44 27 -60 41 -60 17 0 16 6 -10 78 -99
266 -119 316 -127 319 -5 1 -14 -1 -20 -5z m45 -140 c17 -46 31 -88 31 -93 0
-5 -31 -9 -70 -9 l-70 0 26 73 c41 112 44 120 49 116 2 -3 18 -42 34 -87z"/>
<path d="M350 1775 c0 -188 1 -195 20 -195 19 0 20 7 20 195 0 188 -1 195 -20
195 -19 0 -20 -7 -20 -195z"/>
<path d="M480 1905 c0 -51 3 -65 15 -65 12 0 15 14 15 65 0 51 -3 65 -15 65
-12 0 -15 -14 -15 -65z"/>
<path d="M1170 1775 l0 -195 115 0 c94 0 115 3 115 15 0 11 -20 15 -97 17
l-98 3 0 75 0 75 93 3 c73 2 92 6 92 17 0 12 -18 15 -95 15 l-95 0 0 70 0 70
100 0 c82 0 100 3 100 15 0 12 -19 15 -115 15 l-115 0 0 -195z"/>
<path d="M1470 1775 c0 -167 2 -195 15 -195 13 0 15 28 15 195 0 167 -2 195
-15 195 -13 0 -15 -28 -15 -195z"/>
<path d="M1580 1775 c0 -167 2 -195 15 -195 13 0 15 28 15 195 0 167 -2 195
-15 195 -13 0 -15 -28 -15 -195z"/>
<path d="M2510 1775 c0 -188 1 -195 20 -195 19 0 20 7 20 195 0 188 -1 195
-20 195 -19 0 -20 -7 -20 -195z"/>
<path d="M1685 1950 c-8 -14 3 -30 21 -30 8 0 14 9 14 20 0 21 -24 28 -35 10z"/>
<path d="M3488 1903 c-2 -31 -7 -39 -26 -41 -28 -4 -24 -26 6 -30 21 -3 22 -8
22 -112 0 -121 8 -140 61 -140 34 0 41 25 7 27 -33 3 -38 20 -38 126 l0 97 30
0 c39 0 41 27 3 32 -24 3 -28 8 -31 41 -2 23 -8 37 -17 37 -9 0 -15 -14 -17
-37z"/>
<path d="M661 1844 c-30 -25 -31 -25 -31 -5 0 12 -6 21 -15 21 -13 0 -15 -22
-15 -140 0 -113 3 -140 14 -140 11 0 15 24 18 106 3 102 5 107 31 130 35 30
58 30 85 1 20 -21 22 -34 22 -130 0 -100 1 -107 20 -107 19 0 20 7 20 109 0
106 1 110 26 130 33 26 55 26 85 2 22 -17 24 -28 27 -130 3 -86 7 -111 18
-111 11 0 14 24 14 116 0 115 0 116 -30 146 -27 26 -36 30 -67 25 -20 -4 -47
-17 -60 -29 -22 -21 -26 -21 -36 -7 -33 44 -83 49 -126 13z"/>
<path d="M1833 1860 c-32 -13 -56 -55 -49 -85 8 -30 53 -60 105 -70 45 -8 61
-21 61 -49 0 -33 -19 -46 -66 -46 -33 0 -47 5 -62 25 -24 31 -52 34 -45 5 16
-61 140 -84 188 -35 49 48 17 115 -61 129 -82 15 -110 63 -53 95 34 19 76 7
91 -24 13 -29 38 -33 38 -7 0 46 -92 86 -147 62z"/>
<path d="M2672 1853 c-81 -40 -94 -186 -21 -247 43 -36 115 -36 157 -1 37 31
48 65 21 65 -10 0 -19 -4 -19 -8 0 -5 -9 -18 -20 -30 -29 -31 -89 -30 -119 2
-29 30 -39 103 -21 146 26 62 113 76 146 24 17 -24 44 -33 44 -13 0 24 -24 52
-55 65 -44 18 -72 17 -113 -3z"/>
<path d="M2948 1855 c-27 -15 -48 -43 -48 -64 0 -20 22 -11 51 20 25 27 34 30
61 25 40 -8 54 -20 63 -53 8 -33 -6 -43 -68 -43 -52 0 -101 -20 -111 -45 -13
-34 -6 -72 17 -93 38 -36 120 -27 154 17 11 14 12 12 13 -11 0 -18 5 -28 15
-28 12 0 15 19 15 114 0 105 -2 117 -23 141 -28 34 -98 43 -139 20z m132 -156
c0 -51 -39 -88 -92 -89 -29 0 -41 6 -53 24 -20 30 -7 63 28 70 12 3 31 7 42 9
52 12 75 7 75 -14z"/>
<path d="M3242 1845 c-31 -26 -32 -26 -32 -6 0 12 -6 21 -15 21 -13 0 -15 -22
-15 -140 0 -114 3 -140 14 -140 11 0 15 23 18 106 3 103 4 107 32 131 23 19
36 24 60 19 55 -11 66 -35 66 -152 0 -97 1 -104 20 -104 18 0 20 7 20 83 -1
147 -23 194 -97 204 -32 4 -44 1 -71 -22z"/>
<path d="M3690 1863 c-26 -10 -60 -46 -60 -65 0 -24 27 -23 35 1 12 38 84 49
123 19 17 -15 15 -65 -4 -72 -9 -3 -34 -6 -57 -6 -82 0 -127 -48 -106 -109 6
-17 19 -36 29 -41 32 -17 95 -12 124 11 l26 20 0 -20 c0 -14 6 -21 20 -21 19
0 20 7 20 111 0 61 -5 119 -10 130 -21 37 -93 59 -140 42z m110 -175 c0 -45
-34 -78 -81 -78 -92 0 -91 92 1 103 81 9 80 9 80 -25z"/>
<path d="M3965 1845 c-23 -22 -25 -23 -25 -5 0 13 -7 20 -20 20 -19 0 -20 -7
-20 -140 0 -133 1 -140 20 -140 19 0 20 7 20 104 0 117 13 149 63 149 20 0 27
5 27 18 0 27 -36 24 -65 -6z"/>
<path d="M4118 1855 c-27 -15 -48 -43 -48 -64 0 -20 22 -11 51 20 25 27 34 30
61 25 40 -8 54 -20 63 -53 8 -33 -6 -43 -68 -43 -52 0 -101 -20 -111 -45 -13
-34 -6 -72 17 -93 38 -36 120 -27 154 17 11 14 12 12 13 -11 0 -18 5 -28 15
-28 12 0 15 19 15 114 0 105 -2 117 -23 141 -28 34 -98 43 -139 20z m132 -156
c0 -51 -39 -88 -92 -89 -29 0 -41 6 -53 24 -20 30 -7 63 28 70 12 3 31 7 42 9
52 12 75 7 75 -14z"/>
<path d="M1680 1720 c0 -133 1 -140 20 -140 19 0 20 7 20 140 0 133 -1 140
-20 140 -19 0 -20 -7 -20 -140z"/>
<path d="M2085 1322 c-16 -12 -36 -52 -26 -52 6 0 12 -21 14 -47 l3 -48 2 48
c1 30 7 47 15 47 8 0 7 4 -3 10 -12 8 -13 13 -2 30 13 22 13 24 -3 12z"/>
<path d="M2843 1255 c0 -44 1 -71 4 -60 8 35 21 38 38 11 10 -14 22 -26 28
-26 6 0 1 10 -11 23 -26 28 -27 35 -5 59 9 10 12 18 6 18 -5 0 -18 -10 -29
-21 l-19 -21 -6 48 c-5 40 -6 35 -6 -31z"/>
<path d="M3480 1300 c0 -27 -2 -29 -18 -21 -14 7 -25 6 -41 -5 -45 -32 -8
-116 38 -87 15 10 21 10 24 0 3 -7 6 23 6 66 1 42 -1 77 -4 77 -3 0 -5 -14 -5
-30z m-4 -55 c7 -27 -9 -55 -31 -55 -22 0 -38 28 -31 55 5 18 13 25 31 25 18
0 26 -7 31 -25z"/>
<path d="M3580 1315 c-8 -10 -12 -39 -11 -72 2 -69 11 -85 11 -20 0 38 3 47
18 47 16 1 16 1 -1 11 -18 10 -18 12 -1 30 9 10 12 19 7 19 -6 0 -16 -7 -23
-15z"/>
<path d="M320 1317 c0 -20 35 -137 41 -137 3 0 12 21 19 48 19 68 26 70 40 13
7 -28 16 -53 21 -56 4 -3 13 14 19 37 6 24 15 55 20 71 6 16 5 27 -1 27 -5 0
-9 -8 -10 -17 0 -10 -6 -36 -13 -58 l-13 -40 -17 58 c-10 31 -21 57 -25 57 -4
0 -14 -25 -21 -55 -15 -61 -25 -63 -35 -7 -5 34 -24 79 -25 59z"/>
<path d="M600 1250 c0 -40 4 -70 10 -70 6 0 10 30 10 70 0 40 -4 70 -10 70 -6
0 -10 -30 -10 -70z"/>
<path d="M2233 1250 c0 -41 2 -58 4 -37 2 20 2 54 0 75 -2 20 -4 3 -4 -38z"/>
<path d="M2427 1278 c8 -59 13 -61 13 -5 0 26 -4 47 -9 47 -5 0 -7 -19 -4 -42z"/>
<path d="M2537 1302 c-23 -25 -22 -85 1 -105 22 -20 63 -22 80 -5 19 19 14 33
-6 15 -38 -34 -82 -9 -82 47 0 54 43 74 83 39 19 -17 20 -17 8 5 -15 27 -61
30 -84 4z"/>
<path d="M2650 1250 c0 -40 4 -70 10 -70 6 0 10 30 10 70 0 40 -4 70 -10 70
-6 0 -10 -30 -10 -70z"/>
<path d="M1179 1293 c-4 -69 7 -113 29 -112 11 0 12 3 5 6 -7 2 -13 22 -13 43
0 21 6 41 13 43 10 4 10 6 0 6 -7 1 -13 8 -13 16 0 21 -20 19 -21 -2z"/>
<path d="M1999 1294 c-4 -69 7 -114 27 -114 13 0 13 2 0 16 -17 17 -22 70 -7
76 5 2 3 12 -5 22 -14 20 -14 20 -15 0z"/>
<path d="M890 1280 c-8 -5 -18 -6 -22 -4 -4 3 -7 -19 -7 -48 1 -29 3 -42 6
-28 9 60 14 70 33 70 17 0 20 -7 20 -45 0 -25 5 -45 10 -45 6 0 10 21 10 46 0
41 2 45 23 42 18 -2 23 -11 28 -48 l6 -45 1 47 c2 50 -19 76 -48 58 -8 -5 -21
-5 -30 0 -9 5 -22 5 -30 0z"/>
<path d="M1955 1281 c-3 -6 -11 -9 -16 -6 -5 4 -8 -16 -7 -47 1 -46 2 -48 5
-13 2 22 11 46 20 52 9 7 14 15 11 19 -3 3 -9 0 -13 -5z"/>
<path d="M3152 1274 c-25 -18 -30 -65 -8 -84 18 -14 58 -10 64 8 3 11 1 11
-17 0 -29 -18 -56 9 -47 47 6 23 11 27 36 23 35 -5 37 -3 12 11 -14 7 -25 6
-40 -5z"/>
<path d="M3255 1276 c-16 -12 -15 -12 13 -8 25 3 32 1 32 -12 0 -10 -9 -16
-24 -16 -13 0 -29 -7 -36 -15 -18 -22 5 -46 41 -43 27 2 29 5 29 45 0 50 -24
72 -55 49z m43 -63 c-4 -22 -48 -31 -48 -10 0 19 10 27 32 27 13 0 18 -6 16
-17z"/>
<path d="M3370 1281 c-8 -6 -18 -7 -22 -5 -4 3 -7 -19 -7 -48 1 -29 3 -42 6
-28 9 56 14 70 28 70 8 0 15 5 15 10 0 12 -1 12 -20 1z"/>
<path d="M3760 1281 c-8 -6 -18 -7 -22 -5 -4 3 -7 -19 -7 -48 1 -29 3 -42 6
-28 9 56 14 70 28 70 8 0 15 5 15 10 0 12 -1 12 -20 1z"/>
<path d="M3863 1282 c-20 -3 -23 -9 -23 -53 0 -27 5 -49 10 -49 6 0 10 21 10
46 0 41 2 45 23 42 18 -2 23 -11 26 -48 l5 -45 5 45 c5 37 10 46 28 48 19 3
22 -2 26 -40 l4 -43 -1 45 c-1 45 -1 45 -37 46 -20 1 -40 3 -45 6 -5 2 -19 2
-31 0z"/>
<path d="M4150 1281 c-8 -6 -18 -7 -22 -5 -4 3 -7 -19 -7 -48 1 -29 3 -42 6
-28 9 56 14 70 28 70 8 0 15 5 15 10 0 12 -1 12 -20 1z"/>
<path d="M500 1254 c-12 -30 9 -74 34 -74 22 0 46 11 46 21 0 5 -8 4 -19 -2
-22 -15 -51 -5 -51 16 0 11 10 15 36 15 31 0 35 3 32 23 -2 17 -11 23 -36 25
-27 3 -34 -1 -42 -24z m68 -1 c2 -9 -7 -13 -27 -13 -30 0 -39 9 -24 24 11 10
46 3 51 -11z"/>
<path d="M652 1268 c-27 -27 -5 -88 32 -88 13 0 29 7 36 15 8 9 9 15 2 15 -6
0 -14 -4 -17 -10 -10 -17 -34 -11 -45 10 -22 41 26 80 59 48 10 -11 11 -10 6
5 -8 20 -55 23 -73 5z"/>
<path d="M749 1254 c-12 -33 11 -74 41 -74 30 0 53 41 41 74 -8 20 -17 26 -41
26 -24 0 -33 -6 -41 -26z m66 -24 c0 -31 -3 -35 -25 -35 -19 0 -26 6 -28 23
-5 36 5 54 30 50 19 -2 23 -9 23 -38z"/>
<path d="M1028 1255 c-25 -54 38 -104 73 -57 11 14 11 15 -1 5 -21 -19 -48
-16 -60 7 -10 18 -8 20 30 20 41 0 52 14 28 38 -21 21 -57 14 -70 -13z m66 0
c4 -12 -3 -15 -29 -15 -26 0 -33 3 -29 15 4 8 16 15 29 15 13 0 25 -7 29 -15z"/>
<path d="M1239 1254 c-12 -33 11 -74 41 -74 30 0 53 41 41 74 -8 20 -17 26
-41 26 -24 0 -33 -6 -41 -26z m66 -24 c0 -31 -3 -35 -25 -35 -19 0 -26 6 -28
23 -5 36 5 54 30 50 19 -2 23 -9 23 -38z"/>
<path d="M1402 1225 l1 -50 6 45 c5 36 10 45 26 45 16 0 21 -9 26 -45 l5 -45
5 45 c3 37 8 46 26 48 19 3 22 -2 26 -45 l3 -48 2 52 2 52 -65 -2 -65 -1 2
-51z"/>
<path d="M1569 1230 c20 -51 20 -56 4 -67 -18 -14 -14 -26 5 -14 14 9 64 131
53 131 -4 0 -14 -19 -21 -42 l-13 -43 -17 37 c-27 60 -34 58 -11 -2z"/>
<path d="M1701 1211 c1 -37 4 -54 6 -39 4 24 6 26 24 15 37 -23 68 16 55 69
-6 22 -12 24 -46 22 l-40 -2 1 -65z m77 31 c4 -26 -13 -52 -34 -52 -19 0 -36
37 -29 61 10 29 59 22 63 -9z"/>
<path d="M1818 1256 c-16 -36 3 -76 36 -76 32 0 48 22 44 62 -3 29 -7 33 -35
36 -27 3 -35 -1 -45 -22z m70 -14 c4 -26 -13 -52 -34 -52 -22 0 -36 37 -24 61
15 28 54 22 58 -9z"/>
<path d="M2118 1256 c-16 -36 3 -76 36 -76 32 0 48 22 44 62 -3 29 -7 33 -35
36 -27 3 -35 -1 -45 -22z m70 -14 c4 -26 -13 -52 -34 -52 -22 0 -36 37 -24 61
15 28 54 22 58 -9z"/>
<path d="M2273 1230 c0 -30 2 -43 4 -27 2 15 2 39 0 55 -2 15 -4 2 -4 -28z"/>
<path d="M2309 1254 c-12 -33 11 -74 41 -74 30 0 53 41 41 74 -8 20 -17 26
-41 26 -24 0 -33 -6 -41 -26z m66 -24 c0 -31 -3 -35 -25 -35 -19 0 -26 6 -28
23 -5 36 5 54 30 50 19 -2 23 -9 23 -38z"/>
<path d="M2703 1230 c0 -30 2 -43 4 -27 2 15 2 39 0 55 -2 15 -4 2 -4 -28z"/>
<path d="M2742 1268 c-27 -27 -5 -88 32 -88 13 0 29 7 36 15 8 9 9 15 2 15 -6
0 -14 -4 -17 -10 -10 -17 -34 -11 -45 10 -22 41 26 80 59 48 10 -11 11 -10 6
5 -8 20 -55 23 -73 5z"/>
<path d="M2986 1272 c-3 -6 8 -9 25 -8 18 0 34 -5 36 -11 3 -8 -4 -13 -19 -13
-33 0 -51 -14 -46 -36 2 -15 12 -19 41 -19 l38 -1 -3 46 c-3 42 -5 45 -35 48
-17 2 -34 -1 -37 -6z m62 -54 c-7 -21 -36 -34 -49 -21 -6 6 -8 16 -5 22 10 15
59 14 54 -1z"/>
<path d="M3627 1273 c-12 -11 -8 -68 5 -81 21 -21 57 -14 70 13 17 38 -3 75
-40 75 -16 0 -32 -3 -35 -7z m63 -23 c14 -26 -3 -60 -30 -60 -21 0 -37 38 -26
65 8 22 43 18 56 -5z"/>
<path d="M4009 1254 c-12 -33 11 -74 41 -74 30 0 53 41 41 74 -8 20 -17 26
-41 26 -24 0 -33 -6 -41 -26z m66 -24 c0 -31 -3 -35 -25 -35 -19 0 -26 6 -28
23 -5 36 5 54 30 50 19 -2 23 -9 23 -38z"/>
<path d="M4192 1268 c-7 -7 -12 -24 -12 -38 0 -14 5 -31 12 -38 15 -15 55 -16
64 -1 4 8 -1 9 -15 4 -22 -7 -51 9 -51 26 0 5 18 9 40 9 43 0 45 2 30 31 -12
21 -50 25 -68 7z m58 -13 c0 -10 -10 -15 -30 -15 -29 0 -38 9 -23 23 13 13 53
7 53 -8z"/>
<path d="M2420 1190 c0 -5 5 -10 10 -10 6 0 10 5 10 10 0 6 -4 10 -10 10 -5 0
-10 -4 -10 -10z"/>
<path d="M491 1081 c-9 -6 -13 -28 -12 -72 1 -73 11 -95 11 -26 0 28 5 47 11
47 8 0 7 5 -2 16 -10 13 -10 17 1 24 8 5 12 11 9 14 -2 3 -11 1 -18 -3z"/>
<path d="M3221 1081 c-9 -6 -13 -28 -12 -72 1 -73 11 -95 11 -26 0 28 5 47 11
47 8 0 7 5 -2 16 -10 13 -10 17 1 24 8 5 12 11 9 14 -2 3 -11 1 -18 -3z"/>
<path d="M1451 1015 l-1 -71 34 -2 c54 -4 75 49 36 88 -16 16 -25 18 -40 10
-16 -9 -19 -6 -23 18 -2 15 -5 -5 -6 -43z m69 -5 c20 -38 -19 -77 -48 -48 -13
13 -16 50 -5 61 13 14 43 6 53 -13z"/>
<path d="M979 1054 c-4 -69 7 -114 27 -114 13 0 13 2 0 16 -17 17 -22 70 -7
76 5 2 3 12 -5 22 -14 20 -14 20 -15 0z"/>
<path d="M1782 1050 c-7 -11 -8 -20 -3 -20 6 0 11 -19 13 -42 2 -23 8 -43 16
-44 7 -1 8 0 2 3 -15 7 -13 83 3 83 8 0 9 3 1 8 -6 4 -13 13 -15 20 -3 8 -8 5
-17 -8z"/>
<path d="M2739 1054 c-4 -69 7 -114 27 -114 13 0 13 2 0 16 -17 17 -22 70 -7
76 5 2 3 12 -5 22 -14 20 -14 20 -15 0z"/>
<path d="M4029 1054 c-4 -69 7 -114 27 -114 13 0 13 2 0 16 -17 17 -22 70 -7
76 5 2 3 12 -5 22 -14 20 -14 20 -15 0z"/>
<path d="M4139 1053 c-8 -35 6 -106 21 -111 12 -4 13 -2 3 9 -15 15 -17 76 -4
81 5 2 4 11 -3 21 -13 17 -14 17 -17 0z"/>
<path d="M670 1041 c-8 -6 -18 -7 -22 -5 -4 3 -7 -19 -7 -48 1 -29 3 -42 6
-28 9 56 14 70 28 70 8 0 15 5 15 10 0 12 -1 12 -20 1z"/>
<path d="M802 1041 c-8 -4 -31 -7 -53 -5 l-39 3 2 -52 1 -52 6 45 c5 37 10 46
29 48 20 3 22 -1 23 -45 1 -26 3 -37 6 -23 9 60 14 70 33 70 19 0 24 -10 33
-70 3 -15 5 -8 6 17 0 26 -5 47 -15 57 -18 19 -15 18 -32 7z"/>
<path d="M1220 1040 c-8 -5 -18 -6 -22 -4 -4 3 -7 -19 -6 -48 l1 -53 6 45 c5
40 9 45 31 45 22 0 26 -5 31 -45 l6 -45 1 47 c2 51 -19 76 -48 58z"/>
<path d="M1920 1040 c-8 -5 -18 -6 -22 -4 -4 3 -7 -19 -7 -48 1 -29 3 -42 6
-28 9 60 14 70 33 70 17 0 20 -7 20 -45 0 -25 5 -45 10 -45 6 0 10 21 10 46 0
41 2 45 23 42 18 -2 23 -11 28 -48 l6 -45 1 47 c2 50 -19 76 -48 58 -8 -5 -21
-5 -30 0 -9 5 -22 5 -30 0z"/>
<path d="M2230 1040 c-8 -5 -18 -6 -22 -4 -4 3 -7 -25 -7 -63 1 -37 4 -59 6
-47 3 16 10 20 33 16 25 -4 31 0 40 23 6 15 8 36 5 46 -8 25 -37 40 -55 29z
m38 -27 c14 -25 -3 -63 -27 -63 -22 0 -38 38 -27 65 8 21 43 19 54 -2z"/>
<path d="M2340 1041 c-8 -6 -18 -7 -22 -5 -4 3 -7 -19 -7 -48 1 -29 3 -42 6
-28 9 56 14 70 28 70 8 0 15 5 15 10 0 12 -1 12 -20 1z"/>
<path d="M2392 1034 c-41 -28 -24 -94 24 -94 46 0 60 69 19 96 -18 12 -24 11
-43 -2z m54 -29 c7 -27 -9 -55 -31 -55 -22 0 -38 28 -31 55 5 18 13 25 31 25
18 0 26 -7 31 -25z"/>
<path d="M2653 1039 c-18 -6 -23 -16 -23 -42 0 -19 7 -40 14 -47 18 -14 58
-10 64 8 3 11 0 11 -16 1 -26 -16 -52 2 -52 38 0 28 25 41 51 24 11 -6 19 -7
19 -1 0 17 -34 28 -57 19z"/>
<path d="M3950 1040 c-8 -5 -18 -6 -22 -4 -4 3 -7 -19 -6 -48 l1 -53 6 45 c5
37 10 46 28 48 23 3 26 -3 36 -68 3 -14 5 -4 6 22 1 51 -20 76 -49 58z"/>
<path d="M320 990 c0 -27 5 -50 10 -50 6 0 10 23 10 50 0 28 -4 50 -10 50 -5
0 -10 -22 -10 -50z"/>
<path d="M360 990 c0 -27 5 -50 10 -50 6 0 10 20 10 45 0 41 2 45 25 45 23 0
25 -4 25 -45 0 -25 5 -45 10 -45 11 0 13 42 4 78 -5 18 -13 22 -45 22 l-39 0
0 -50z"/>
<path d="M529 1014 c-12 -33 11 -74 41 -74 30 0 53 41 41 74 -8 20 -17 26 -41
26 -24 0 -33 -6 -41 -26z m66 -24 c0 -31 -3 -35 -25 -35 -19 0 -26 6 -28 23
-5 36 5 54 30 50 19 -2 23 -9 23 -38z"/>
<path d="M876 1032 c-3 -6 8 -9 25 -8 18 0 34 -5 36 -11 3 -8 -4 -13 -19 -13
-33 0 -51 -14 -46 -36 2 -15 12 -19 41 -19 l38 -1 -3 46 c-3 42 -5 45 -35 48
-17 2 -34 -1 -37 -6z m62 -54 c-7 -21 -36 -34 -49 -21 -6 6 -8 16 -5 22 10 15
59 14 54 -1z"/>
<path d="M1043 990 c0 -30 2 -43 4 -27 2 15 2 39 0 55 -2 15 -4 2 -4 -28z"/>
<path d="M1079 1014 c-12 -33 11 -74 41 -74 30 0 53 41 41 74 -8 20 -17 26
-41 26 -24 0 -33 -6 -41 -26z m66 -24 c0 -31 -3 -35 -25 -35 -19 0 -26 6 -28
23 -5 36 5 54 30 50 19 -2 23 -9 23 -38z"/>
<path d="M1346 1032 c-3 -6 8 -9 25 -8 18 0 34 -5 36 -11 3 -8 -4 -13 -19 -13
-33 0 -51 -14 -46 -36 2 -15 12 -19 41 -19 l38 -1 -3 46 c-3 42 -5 45 -35 48
-17 2 -34 -1 -37 -6z m62 -54 c-7 -21 -36 -34 -49 -21 -6 6 -8 16 -5 22 10 15
59 14 54 -1z"/>
<path d="M1567 1033 c-12 -11 -8 -68 5 -81 21 -21 57 -14 70 13 17 38 -3 75
-40 75 -16 0 -32 -3 -35 -7z m63 -23 c14 -26 -3 -60 -30 -60 -21 0 -37 38 -26
65 8 22 43 18 56 -5z"/>
<path d="M1671 1004 c-1 -47 14 -65 53 -62 25 2 26 5 24 53 l-1 50 -6 -45 c-5
-37 -10 -46 -28 -48 -23 -3 -26 3 -36 68 -3 15 -5 9 -6 -16z"/>
<path d="M2050 1036 c0 -5 8 -30 17 -58 16 -43 16 -50 3 -59 -13 -9 -13 -10 0
-7 15 5 65 116 56 126 -3 2 -10 -8 -16 -24 -6 -16 -13 -36 -16 -44 -4 -10 -11
-2 -20 24 -14 39 -24 56 -24 42z"/>
<path d="M2478 975 c-3 -63 3 -82 16 -49 9 25 7 114 -3 114 -5 0 -11 -29 -13
-65z"/>
<path d="M2532 1028 c-7 -7 -12 -24 -12 -38 0 -14 5 -31 12 -38 15 -15 55 -16
64 -1 4 8 -1 9 -15 4 -22 -7 -51 9 -51 26 0 5 18 9 40 9 43 0 45 2 30 31 -12
21 -50 25 -68 7z m58 -13 c0 -10 -10 -15 -30 -15 -29 0 -38 9 -23 23 13 13 53
7 53 -8z"/>
<path d="M2797 1026 c-6 -15 11 -36 29 -36 6 0 17 -7 24 -15 17 -21 -15 -33
-44 -15 -20 11 -20 11 -4 -5 11 -12 24 -16 42 -11 35 9 33 35 -4 49 -41 16
-41 42 0 33 19 -3 29 -2 25 4 -9 15 -62 12 -68 -4z"/>
<path d="M2939 1014 c-12 -33 11 -74 41 -74 30 0 53 41 41 74 -8 20 -17 26
-41 26 -24 0 -33 -6 -41 -26z m66 -24 c0 -31 -3 -35 -25 -35 -19 0 -26 6 -28
23 -5 36 5 54 30 50 19 -2 23 -9 23 -38z"/>
<path d="M3052 985 l1 -50 6 44 c4 31 12 46 26 52 17 6 15 7 -7 6 -27 -1 -28
-3 -26 -52z"/>
<path d="M3160 990 c0 -27 5 -50 10 -50 6 0 10 23 10 50 0 28 -4 50 -10 50 -5
0 -10 -22 -10 -50z"/>
<path d="M3321 989 c16 -42 17 -54 7 -67 -11 -13 -11 -14 1 -11 8 3 25 34 38
70 26 68 21 75 -7 11 l-17 -37 -13 43 c-7 23 -17 42 -21 42 -4 0 2 -23 12 -51z"/>
<path d="M3408 1016 c-16 -36 3 -76 36 -76 32 0 48 22 44 62 -3 29 -7 33 -35
36 -27 3 -35 -1 -45 -22z m70 -14 c4 -26 -13 -52 -34 -52 -22 0 -36 37 -24 61
15 28 54 22 58 -9z"/>
<path d="M3510 1016 c0 -14 4 -36 10 -50 8 -22 15 -26 45 -24 l35 3 -1 50 -1
50 -8 -38 c-8 -45 -23 -62 -44 -54 -11 4 -16 19 -16 47 0 22 -4 40 -10 40 -5
0 -10 -11 -10 -24z"/>
<path d="M3675 994 c7 -25 16 -48 19 -51 5 -6 26 40 26 58 0 5 5 9 10 9 6 0
10 -4 10 -9 0 -17 20 -64 25 -59 10 10 33 98 25 98 -4 0 -11 -19 -17 -42 l-9
-43 -14 43 c-7 23 -16 42 -20 42 -4 0 -13 -19 -20 -42 l-14 -43 -9 43 c-6 23
-13 42 -18 42 -4 0 -2 -21 6 -46z"/>
<path d="M3816 1032 c-3 -6 8 -9 25 -8 18 0 34 -5 36 -11 3 -8 -4 -13 -19 -13
-33 0 -51 -14 -46 -36 2 -15 12 -19 41 -19 l38 -1 -3 46 c-3 42 -5 45 -35 48
-17 2 -34 -1 -37 -6z m62 -54 c-7 -21 -36 -34 -49 -21 -6 6 -8 16 -5 22 10 15
59 14 54 -1z"/>
<path d="M4198 1016 c-16 -36 3 -76 36 -76 32 0 48 22 44 62 -3 29 -7 33 -35
36 -27 3 -35 -1 -45 -22z m70 -14 c4 -26 -13 -52 -34 -52 -22 0 -36 37 -24 61
15 28 54 22 58 -9z"/>
<path d="M2630 820 c0 -27 -2 -29 -18 -21 -14 7 -25 6 -41 -5 -45 -32 -8 -116
38 -87 15 10 21 10 24 0 3 -7 6 23 6 66 1 42 -1 77 -4 77 -3 0 -5 -14 -5 -30z
m-4 -55 c7 -27 -9 -55 -31 -55 -22 0 -38 28 -31 55 5 18 13 25 31 25 18 0 26
-7 31 -25z"/>
<path d="M320 770 c0 -40 4 -70 10 -70 6 0 10 12 10 27 l0 27 32 -30 c30 -28
30 -17 0 19 -14 15 -13 19 4 40 17 20 16 20 -9 -2 l-27 -24 0 41 c0 23 -4 42
-10 42 -6 0 -10 -30 -10 -70z"/>
<path d="M1431 775 l-1 -71 34 -2 c54 -4 75 49 36 88 -16 16 -25 18 -40 10
-16 -9 -19 -6 -23 18 -2 15 -5 -5 -6 -43z m69 -5 c20 -38 -19 -77 -48 -48 -13
13 -16 50 -5 61 13 14 43 6 53 -13z"/>
<path d="M2230 770 c0 -76 17 -97 22 -27 2 34 7 43 25 45 18 3 23 -3 28 -35
10 -58 13 -62 14 -18 1 53 -10 69 -43 63 -22 -4 -26 -2 -26 18 0 13 -4 24 -10
24 -6 0 -10 -30 -10 -70z"/>
<path d="M3410 770 c0 -76 17 -97 22 -27 2 34 7 43 25 45 18 3 23 -3 28 -35
10 -58 13 -62 14 -18 1 53 -10 69 -43 63 -22 -4 -26 -2 -26 18 0 13 -4 24 -10
24 -6 0 -10 -30 -10 -70z"/>
<path d="M3680 828 c0 -7 5 -20 10 -28 8 -12 10 -9 10 13 0 15 -4 27 -10 27
-5 0 -10 -6 -10 -12z"/>
<path d="M3731 774 c-13 -36 -21 -67 -18 -70 3 -3 8 4 12 15 9 31 70 30 78 -1
4 -12 9 -20 12 -17 7 8 -40 132 -51 136 -5 2 -20 -26 -33 -63z m52 -16 c-6
-11 -43 -10 -43 2 0 5 5 21 12 35 l12 26 11 -28 c7 -15 10 -31 8 -35z"/>
<path d="M3842 770 c0 -41 2 -70 5 -63 3 10 9 10 24 0 37 -23 68 16 54 70 -5
22 -10 25 -40 21 -30 -3 -35 -1 -38 22 -2 14 -4 -9 -5 -50z m76 -8 c4 -26 -13
-52 -34 -52 -22 0 -36 37 -24 61 15 28 54 22 58 -9z"/>
<path d="M4240 828 c0 -7 5 -20 10 -28 8 -12 10 -9 10 13 0 15 -4 27 -10 27
-5 0 -10 -6 -10 -12z"/>
<path d="M1759 813 c-4 -69 7 -113 29 -112 11 0 12 3 5 6 -7 2 -13 22 -13 43
0 21 6 41 13 43 10 4 10 6 0 6 -7 1 -13 8 -13 16 0 21 -20 19 -21 -2z"/>
<path d="M3139 813 c-8 -35 6 -106 21 -111 12 -4 13 -2 3 9 -15 15 -17 76 -4
81 5 2 4 11 -3 21 -13 17 -14 17 -17 0z"/>
<path d="M3352 810 c-7 -11 -8 -20 -3 -20 6 0 11 -19 13 -42 2 -23 8 -43 16
-44 7 -1 8 0 2 3 -15 7 -13 83 3 83 8 0 9 3 1 8 -6 4 -13 13 -15 20 -3 8 -8 5
-17 -8z"/>
<path d="M4179 814 c-4 -69 7 -114 27 -114 13 0 13 2 0 16 -17 17 -22 70 -7
76 5 2 3 12 -5 22 -14 20 -14 20 -15 0z"/>
<path d="M860 800 c-8 -5 -18 -6 -22 -4 -4 3 -7 -19 -7 -48 1 -29 3 -42 6 -28
9 60 14 70 33 70 17 0 20 -7 20 -45 0 -25 5 -45 10 -45 6 0 10 21 10 46 0 41
2 45 23 42 18 -2 23 -11 28 -48 l6 -45 1 47 c2 50 -19 76 -48 58 -8 -5 -21 -5
-30 0 -9 5 -22 5 -30 0z"/>
<path d="M1135 801 c-3 -6 -11 -9 -16 -6 -5 4 -8 -16 -7 -47 1 -46 2 -48 5
-13 2 22 11 46 20 52 9 7 14 15 11 19 -3 3 -9 0 -13 -5z"/>
<path d="M1962 801 c-8 -4 -31 -7 -53 -5 l-39 3 2 -52 1 -52 6 45 c5 37 10 46
29 48 20 3 22 -1 23 -45 1 -26 3 -37 6 -23 9 60 14 70 33 70 19 0 24 -10 33
-70 3 -15 5 -8 6 17 0 26 -5 47 -15 57 -18 19 -15 18 -32 7z"/>
<path d="M2465 796 c-16 -12 -15 -12 13 -8 25 3 32 1 32 -12 0 -10 -9 -16 -24
-16 -13 0 -29 -7 -36 -15 -18 -22 5 -46 41 -43 27 2 29 5 29 45 0 50 -24 72
-55 49z m43 -63 c-4 -22 -48 -31 -48 -10 0 19 10 27 32 27 13 0 18 -6 16 -17z"/>
<path d="M2732 794 c-41 -28 -24 -94 24 -94 46 0 60 69 19 96 -18 12 -24 11
-43 -2z m54 -29 c7 -27 -9 -55 -31 -55 -22 0 -38 28 -31 55 5 18 13 25 31 25
18 0 26 -7 31 -25z"/>
<path d="M3050 801 c-8 -6 -18 -7 -22 -5 -4 3 -7 -19 -7 -48 1 -29 3 -42 6
-28 9 56 14 70 28 70 8 0 15 5 15 10 0 12 -1 12 -20 1z"/>
<path d="M420 750 c0 -27 5 -50 10 -50 6 0 10 20 10 45 0 41 2 45 25 45 23 0
25 -4 25 -45 0 -25 5 -45 10 -45 11 0 13 42 4 78 -5 18 -13 22 -45 22 l-39 0
0 -50z"/>
<path d="M537 793 c-12 -11 -8 -68 5 -81 21 -21 57 -14 70 13 17 38 -3 75 -40
75 -16 0 -32 -3 -35 -7z m63 -23 c14 -26 -3 -60 -30 -60 -21 0 -37 38 -26 65
8 22 43 18 56 -5z"/>
<path d="M630 798 c1 -20 28 -89 35 -89 5 0 14 17 20 38 l12 38 13 -42 c7 -24
16 -43 20 -43 10 0 34 89 27 96 -3 3 -9 -10 -12 -30 -9 -46 -22 -46 -31 -1 -8
46 -19 44 -37 -7 l-14 -43 -8 38 c-4 20 -11 40 -16 43 -5 3 -9 4 -9 2z"/>
<path d="M998 776 c-16 -36 3 -76 36 -76 32 0 48 22 44 62 -3 29 -7 33 -35 36
-27 3 -35 -1 -45 -22z m70 -14 c4 -26 -13 -52 -34 -52 -22 0 -36 37 -24 61 15
28 54 22 58 -9z"/>
<path d="M1170 774 c-12 -30 9 -74 34 -74 22 0 46 11 46 21 0 5 -8 4 -19 -2
-22 -15 -51 -5 -51 16 0 11 10 15 36 15 31 0 35 3 32 23 -2 17 -11 23 -36 25
-27 3 -34 -1 -42 -24z m68 -1 c2 -9 -7 -13 -27 -13 -30 0 -39 9 -24 24 11 10
46 3 51 -11z"/>
<path d="M1326 792 c-3 -6 8 -9 25 -8 18 0 34 -5 36 -11 3 -8 -4 -13 -19 -13
-33 0 -51 -14 -46 -36 2 -15 12 -19 41 -19 l38 -1 -3 46 c-3 42 -5 45 -35 48
-17 2 -34 -1 -37 -6z m62 -54 c-7 -21 -36 -34 -49 -21 -6 6 -8 16 -5 22 10 15
59 14 54 -1z"/>
<path d="M1547 793 c-12 -11 -8 -68 5 -81 21 -21 57 -14 70 13 17 38 -3 75
-40 75 -16 0 -32 -3 -35 -7z m63 -23 c14 -26 -3 -60 -30 -60 -21 0 -37 38 -26
65 8 22 43 18 56 -5z"/>
<path d="M1651 764 c-1 -47 14 -65 53 -62 25 2 26 5 24 53 l-1 50 -6 -45 c-5
-37 -10 -46 -28 -48 -23 -3 -26 3 -36 68 -3 15 -5 9 -6 -16z"/>
<path d="M2042 788 c-7 -7 -12 -24 -12 -38 0 -14 5 -31 12 -38 15 -15 55 -16
64 -1 4 8 -1 9 -15 4 -22 -7 -51 9 -51 26 0 5 18 9 40 9 43 0 45 2 30 31 -12
21 -50 25 -68 7z m58 -13 c0 -10 -10 -15 -30 -15 -29 0 -38 9 -23 23 13 13 53
7 53 -8z"/>
<path d="M2352 788 c-7 -7 -12 -24 -12 -38 0 -14 5 -31 12 -38 15 -15 55 -16
64 -1 4 8 -1 9 -15 4 -22 -7 -51 9 -51 26 0 5 18 9 40 9 43 0 45 2 30 31 -12
21 -50 25 -68 7z m58 -13 c0 -10 -10 -15 -30 -15 -29 0 -38 9 -23 23 13 13 53
7 53 -8z"/>
<path d="M2829 754 c10 -25 22 -45 27 -46 5 0 17 21 26 46 22 58 13 61 -11 4
l-18 -43 -13 43 c-7 23 -17 42 -21 42 -4 0 1 -21 10 -46z"/>
<path d="M2922 788 c-7 -7 -12 -24 -12 -38 0 -14 5 -31 12 -38 15 -15 55 -16
64 -1 4 8 -1 9 -15 4 -22 -7 -51 9 -51 26 0 5 18 9 40 9 43 0 45 2 30 31 -12
21 -50 25 -68 7z m58 -13 c0 -10 -10 -15 -30 -15 -29 0 -38 9 -23 23 13 13 53
7 53 -8z"/>
<path d="M3198 776 c-16 -36 3 -76 36 -76 32 0 48 22 44 62 -3 29 -7 33 -35
36 -27 3 -35 -1 -45 -22z m70 -14 c4 -26 -13 -52 -34 -52 -22 0 -36 37 -24 61
15 28 54 22 58 -9z"/>
<path d="M3528 775 c-25 -54 38 -104 73 -57 11 14 11 15 -1 5 -21 -19 -48 -16
-60 7 -10 18 -8 20 30 20 41 0 52 14 28 38 -21 21 -57 14 -70 -13z m66 0 c4
-12 -3 -15 -29 -15 -26 0 -33 3 -29 15 4 8 16 15 29 15 13 0 25 -7 29 -15z"/>
<path d="M3958 776 c-16 -36 3 -76 36 -76 32 0 48 22 44 62 -3 29 -7 33 -35
36 -27 3 -35 -1 -45 -22z m70 -14 c4 -26 -13 -52 -34 -52 -22 0 -36 37 -24 61
15 28 54 22 58 -9z"/>
<path d="M4060 776 c0 -14 4 -36 10 -50 8 -22 15 -26 45 -24 l35 3 -1 50 -1
50 -8 -38 c-8 -45 -23 -62 -44 -54 -11 4 -16 19 -16 47 0 22 -4 40 -10 40 -5
0 -10 -11 -10 -24z"/>
<path d="M2142 700 c0 -14 2 -19 5 -12 2 6 2 18 0 25 -3 6 -5 1 -5 -13z"/>
<path d="M963 555 c0 -27 2 -38 4 -22 2 15 2 37 0 50 -2 12 -4 0 -4 -28z"/>
<path d="M632 570 c-7 -11 -8 -20 -3 -20 6 0 11 -19 13 -42 2 -23 8 -43 16
-44 7 -1 8 0 2 3 -15 7 -13 83 3 83 8 0 9 3 1 8 -6 4 -13 13 -15 20 -3 8 -8 5
-17 -8z"/>
<path d="M336 558 c-25 -14 -19 -35 14 -47 17 -5 30 -17 30 -25 0 -19 -31 -21
-49 -3 -11 10 -13 9 -9 -3 6 -19 45 -25 64 -10 22 19 17 30 -22 46 -29 12 -34
18 -24 29 9 11 17 12 31 4 11 -5 19 -6 19 -1 0 14 -35 21 -54 10z"/>
<path d="M880 560 c-8 -5 -18 -6 -22 -4 -4 3 -7 -19 -6 -48 l1 -53 6 45 c5 37
10 46 28 48 23 3 26 -3 36 -68 3 -14 5 -4 6 22 1 51 -20 76 -49 58z"/>
<path d="M420 534 c-12 -30 9 -74 34 -74 22 0 46 11 46 21 0 5 -8 4 -19 -2
-22 -15 -51 -5 -51 16 0 11 10 15 36 15 31 0 35 3 32 23 -2 17 -11 23 -36 25
-27 3 -34 -1 -42 -24z m68 -1 c2 -9 -7 -13 -27 -13 -30 0 -39 9 -24 24 11 10
46 3 51 -11z"/>
<path d="M532 548 c-27 -27 -5 -88 32 -88 13 0 29 7 36 15 8 9 9 15 2 15 -6 0
-14 -4 -17 -10 -10 -17 -34 -11 -45 10 -22 41 26 80 59 48 10 -11 11 -10 6 5
-8 20 -55 23 -73 5z"/>
<path d="M703 510 c0 -30 2 -43 4 -27 2 15 2 39 0 55 -2 15 -4 2 -4 -28z"/>
<path d="M738 536 c-16 -36 3 -76 36 -76 32 0 48 22 44 62 -3 29 -7 33 -35 36
-27 3 -35 -1 -45 -22z m70 -14 c4 -26 -13 -52 -34 -52 -22 0 -36 37 -24 61 15
28 54 22 58 -9z"/>
</g>
</svg>
