<svg id="svg" version="1.1" xmlns="http://www.w3.org/2000/svg" xmlns:xlink="http://www.w3.org/1999/xlink" width="400" height="400" viewBox="0, 0, 400,400"><g id="svgg"><path id="path0" d="M238.915 127.217 C 216.437 131.224,201.227 153.995,205.842 176.730 L 206.112 178.059 203.156 177.812 C 170.816 175.109,142.034 160.664,121.622 136.894 L 119.470 134.389 118.614 135.897 C 112.534 146.600,112.626 163.470,118.825 174.618 C 121.914 180.173,127.493 186.710,130.825 188.678 C 133.288 190.133,131.548 190.391,125.906 189.407 C 122.682 188.845,115.436 186.386,114.620 185.577 C 113.467 184.434,113.423 186.617,114.463 193.342 C 116.695 207.785,129.070 221.243,143.959 225.420 C 145.313 225.801,146.505 226.246,146.607 226.411 C 147.037 227.107,141.134 227.799,134.967 227.775 L 128.534 227.751 129.284 229.725 C 134.469 243.370,147.859 253.779,162.600 255.622 C 167.757 256.267,167.755 256.263,164.113 258.824 C 148.881 269.534,130.459 275.000,112.045 274.275 C 107.252 274.086,106.416 274.135,107.045 274.568 C 109.505 276.262,123.233 283.200,124.125 283.200 C 124.263 283.200,125.327 283.627,126.488 284.149 C 129.232 285.382,135.305 287.361,139.600 288.420 C 141.470 288.882,143.630 289.422,144.400 289.621 C 152.851 291.807,173.308 292.910,182.200 291.660 C 184.180 291.381,187.780 290.880,190.200 290.545 C 244.192 283.078,286.845 233.510,288.284 176.558 L 288.507 167.715 291.903 164.975 C 297.567 160.405,304.453 153.167,307.956 148.100 C 309.010 146.575,308.738 146.507,306.133 147.643 C 305.070 148.107,302.451 148.993,300.314 149.611 C 298.177 150.229,296.287 150.821,296.114 150.925 C 295.941 151.029,294.000 151.408,291.800 151.767 C 289.600 152.125,287.395 152.508,286.900 152.617 C 285.311 152.967,285.933 152.075,288.489 150.339 C 293.329 147.053,298.393 141.161,301.260 135.482 C 302.508 133.009,303.690 130.000,303.413 130.000 C 303.330 130.000,301.896 130.737,300.226 131.637 C 294.572 134.687,288.852 136.878,281.400 138.847 C 277.575 139.857,277.158 139.809,275.578 138.170 C 267.324 129.605,251.701 124.938,238.915 127.217 " stroke="none" fill="#fbfbfc" fill-rule="evenodd"></path><path id="path1" d="M186.776 0.148 C 186.679 0.239,184.800 0.427,182.600 0.567 C 177.870 0.867,175.221 1.099,172.900 1.416 L 171.200 1.649 171.200 16.425 C 171.200 24.551,171.065 31.215,170.900 31.233 C 167.257 31.638,164.576 32.135,164.381 32.440 C 164.261 32.629,163.541 32.867,162.781 32.969 C 160.011 33.339,155.370 34.423,154.200 34.974 C 153.540 35.284,151.965 35.745,150.700 35.998 C 149.435 36.251,148.144 36.713,147.832 37.025 C 147.397 37.460,147.221 37.476,147.078 37.096 C 146.949 36.753,146.684 36.847,146.216 37.400 C 145.845 37.840,145.655 37.975,145.794 37.700 C 145.933 37.425,145.857 37.200,145.624 37.200 C 145.391 37.200,145.200 37.359,145.200 37.553 C 145.200 37.903,144.572 38.155,142.144 38.775 C 140.941 39.082,139.600 38.297,139.600 37.284 C 139.600 37.116,139.289 36.534,138.909 35.992 C 138.529 35.449,138.186 34.783,138.146 34.511 C 138.106 34.239,137.826 33.769,137.524 33.467 C 137.222 33.164,136.638 32.171,136.226 31.259 C 135.815 30.346,135.348 29.600,135.188 29.600 C 135.028 29.600,134.663 29.015,134.376 28.300 C 134.089 27.585,133.220 26.010,132.444 24.800 C 131.669 23.590,131.018 22.510,130.997 22.400 C 130.842 21.552,130.291 20.400,130.041 20.400 C 129.874 20.400,129.315 19.500,128.800 18.400 C 128.285 17.300,127.732 16.400,127.571 16.400 C 127.410 16.400,127.082 15.836,126.842 15.147 C 126.410 13.910,124.031 13.606,123.232 14.686 C 122.854 15.197,121.258 16.000,120.619 16.000 C 119.873 16.000,117.172 17.237,116.471 17.900 C 116.181 18.175,115.692 18.400,115.385 18.400 C 114.814 18.400,112.119 19.555,111.400 20.107 C 111.180 20.276,110.010 20.919,108.800 21.534 C 105.693 23.115,103.035 24.564,102.800 24.805 C 102.690 24.918,101.586 25.499,100.347 26.095 C 99.108 26.691,97.978 27.479,97.837 27.847 C 97.696 28.214,97.478 28.411,97.351 28.284 C 97.048 27.981,93.891 29.607,93.480 30.278 C 93.304 30.565,92.925 30.800,92.639 30.800 C 92.352 30.800,91.674 31.205,91.132 31.700 C 90.590 32.195,89.354 33.039,88.384 33.576 C 87.415 34.113,86.256 34.923,85.811 35.376 C 85.365 35.829,84.730 36.253,84.400 36.317 C 84.070 36.381,83.501 36.786,83.136 37.217 C 82.771 37.648,82.276 38.000,82.036 38.000 C 81.796 38.000,81.600 38.151,81.600 38.336 C 81.600 38.520,81.140 38.881,80.577 39.137 C 80.015 39.394,79.666 39.783,79.801 40.002 C 79.936 40.221,79.779 40.400,79.452 40.400 C 79.125 40.400,78.542 40.715,78.157 41.100 C 77.772 41.485,77.395 41.748,77.320 41.685 C 75.891 40.484,75.918 44.661,77.349 46.092 C 77.639 46.382,78.194 47.289,78.582 48.106 C 78.970 48.924,79.446 49.495,79.639 49.376 C 79.833 49.256,79.890 49.421,79.767 49.743 C 79.643 50.064,79.960 50.808,80.471 51.396 C 80.982 51.983,81.409 52.585,81.420 52.732 C 81.472 53.442,82.088 54.800,82.359 54.800 C 82.526 54.800,83.082 55.693,83.593 56.786 C 84.105 57.878,84.661 58.686,84.829 58.582 C 84.997 58.478,85.251 58.922,85.393 59.569 C 85.535 60.216,85.910 60.959,86.226 61.221 C 86.542 61.483,86.800 61.954,86.800 62.266 C 86.800 62.579,87.250 63.320,87.800 63.913 C 88.350 64.507,88.800 65.221,88.800 65.501 C 88.800 66.116,89.649 67.692,90.188 68.078 C 90.603 68.375,90.598 68.381,89.446 69.015 C 89.031 69.243,88.730 69.577,88.775 69.758 C 88.821 69.938,88.170 70.552,87.329 71.121 C 85.298 72.496,71.906 85.877,70.891 87.546 C 70.453 88.267,69.938 88.820,69.747 88.774 C 69.556 88.728,69.222 89.075,69.005 89.545 C 68.623 90.372,67.200 90.766,67.200 90.044 C 67.200 89.848,66.435 89.297,65.500 88.820 C 64.565 88.342,63.080 87.516,62.200 86.985 C 60.116 85.727,58.906 85.201,58.074 85.194 C 57.596 85.190,57.543 85.097,57.893 84.875 C 58.212 84.672,57.617 84.224,56.193 83.597 C 54.987 83.066,54.000 82.485,54.000 82.307 C 54.000 82.129,53.505 81.770,52.900 81.511 C 52.295 81.251,51.306 80.704,50.703 80.294 C 50.099 79.885,49.396 79.679,49.141 79.837 C 48.870 80.004,48.784 79.950,48.935 79.706 C 49.191 79.292,46.948 78.000,45.973 78.000 C 45.694 78.000,45.582 77.885,45.723 77.744 C 46.022 77.444,43.467 76.000,42.637 76.000 C 42.326 76.000,41.627 76.892,41.084 77.982 C 40.541 79.072,39.992 79.858,39.863 79.730 C 39.735 79.602,39.414 79.970,39.151 80.548 C 38.887 81.127,38.520 81.600,38.336 81.600 C 38.151 81.600,38.000 81.771,38.000 81.979 C 38.000 82.188,37.548 82.846,36.996 83.442 C 36.444 84.038,36.081 84.614,36.190 84.723 C 36.298 84.831,35.974 85.303,35.469 85.771 C 34.965 86.239,34.113 87.415,33.576 88.384 C 33.039 89.354,32.195 90.590,31.700 91.132 C 31.205 91.674,30.800 92.352,30.800 92.639 C 30.800 92.925,30.565 93.304,30.278 93.480 C 29.607 93.891,27.981 97.048,28.284 97.351 C 28.411 97.478,28.214 97.696,27.847 97.837 C 27.480 97.978,26.704 99.108,26.123 100.347 C 25.542 101.586,24.962 102.690,24.833 102.800 C 24.574 103.022,23.235 105.458,21.534 108.800 C 20.919 110.010,20.274 111.180,20.102 111.400 C 19.372 112.334,17.766 116.721,17.931 117.330 C 17.980 117.511,17.865 117.564,17.676 117.447 C 17.298 117.214,16.000 119.672,16.000 120.619 C 16.000 121.268,15.193 122.858,14.670 123.242 C 13.565 124.053,13.911 126.717,15.156 126.990 C 15.844 127.142,16.322 127.403,16.218 127.571 C 16.114 127.739,16.964 128.310,18.106 128.838 C 19.248 129.367,20.502 130.115,20.891 130.500 C 21.281 130.885,21.797 131.200,22.038 131.200 C 22.279 131.200,23.010 131.580,23.661 132.044 C 24.313 132.508,24.937 132.797,25.047 132.686 C 25.158 132.575,25.679 132.916,26.206 133.442 C 26.733 133.969,27.523 134.400,27.962 134.400 C 28.401 134.400,28.904 134.646,29.080 134.946 C 29.465 135.602,31.994 136.951,32.013 136.510 C 32.021 136.340,32.336 136.565,32.713 137.012 C 33.500 137.942,36.526 139.600,37.436 139.600 C 37.772 139.600,37.948 139.761,37.826 139.958 C 37.704 140.155,37.882 140.423,38.221 140.553 C 38.982 140.845,38.634 143.416,37.687 144.500 C 37.207 145.051,37.191 145.200,37.614 145.200 C 38.020 145.200,37.998 145.324,37.528 145.700 C 36.964 146.151,35.692 150.335,35.381 152.759 C 35.313 153.286,35.081 153.826,34.866 153.960 C 34.650 154.093,34.343 154.921,34.184 155.801 C 34.025 156.680,33.814 157.760,33.716 158.200 C 33.617 158.640,33.456 159.360,33.357 159.800 C 33.258 160.240,33.073 161.275,32.945 162.100 C 32.817 162.925,32.569 163.600,32.394 163.600 C 32.107 163.600,31.890 164.727,31.416 168.689 C 31.028 171.922,32.535 171.642,16.178 171.514 L 1.619 171.400 1.401 173.000 C 0.519 179.493,0.200 186.714,0.200 200.200 C 0.200 213.876,0.466 219.722,1.433 227.300 L 1.675 229.200 16.461 229.200 C 24.593 229.200,31.165 229.335,31.065 229.500 C 30.728 230.055,31.568 234.133,32.087 234.462 C 32.497 234.722,32.498 234.789,32.092 234.794 C 31.557 234.800,31.723 236.264,32.432 237.800 C 32.635 238.240,33.142 240.288,33.559 242.351 C 33.976 244.414,34.561 246.256,34.859 246.445 C 35.299 246.724,35.288 246.790,34.800 246.800 C 34.412 246.808,34.355 246.916,34.638 247.106 C 35.046 247.379,35.615 249.004,35.792 250.400 C 35.833 250.730,36.172 252.034,36.544 253.297 C 36.916 254.560,37.201 255.710,37.176 255.852 C 37.152 255.994,37.289 256.221,37.482 256.355 C 37.988 256.709,38.744 259.452,38.450 259.868 C 38.312 260.061,37.300 260.665,36.200 261.210 C 35.100 261.754,33.965 262.515,33.677 262.900 C 33.390 263.285,32.839 263.600,32.453 263.600 C 32.067 263.600,31.402 263.915,30.975 264.301 C 30.549 264.686,29.137 265.515,27.837 266.144 C 26.537 266.772,25.118 267.618,24.683 268.023 C 24.248 268.429,23.377 268.873,22.748 269.011 C 22.119 269.149,21.469 269.488,21.302 269.765 C 21.136 270.041,20.102 270.702,19.005 271.233 C 17.908 271.765,16.588 272.560,16.073 273.000 C 15.558 273.440,14.925 273.800,14.668 273.800 C 13.979 273.800,13.866 275.808,14.518 276.461 C 14.827 276.770,15.309 277.737,15.591 278.611 C 15.872 279.485,16.889 281.864,17.851 283.898 C 18.813 285.933,19.600 287.778,19.600 287.998 C 19.600 288.219,19.747 288.400,19.926 288.400 C 20.106 288.400,20.663 289.390,21.165 290.600 C 21.666 291.810,22.209 292.718,22.372 292.618 C 22.534 292.517,22.675 292.652,22.684 292.918 C 22.717 293.828,24.372 297.200,24.786 297.200 C 25.014 297.200,25.200 297.382,25.200 297.604 C 25.200 298.533,26.916 301.576,27.305 301.335 C 27.539 301.190,27.606 301.267,27.455 301.511 C 27.308 301.750,27.632 302.601,28.176 303.403 C 28.720 304.204,29.276 305.209,29.411 305.636 C 29.547 306.063,29.825 306.308,30.029 306.182 C 30.233 306.056,30.400 306.222,30.400 306.551 C 30.400 306.880,31.210 308.333,32.200 309.779 C 33.190 311.225,34.003 312.541,34.007 312.704 C 34.011 312.867,34.461 313.424,35.007 313.942 C 35.553 314.460,36.000 315.045,36.000 315.241 C 36.000 315.638,39.144 320.001,40.166 321.023 C 40.525 321.382,41.098 322.215,41.439 322.875 C 41.780 323.535,42.164 323.969,42.293 323.841 C 42.421 323.712,42.768 323.807,43.063 324.052 C 43.462 324.383,43.765 324.361,44.240 323.967 C 44.593 323.674,45.173 323.392,45.529 323.340 C 45.886 323.287,46.363 323.009,46.589 322.721 C 46.815 322.433,47.945 321.762,49.100 321.230 C 50.255 320.698,51.200 320.157,51.200 320.026 C 51.200 319.896,52.145 319.345,53.300 318.802 C 54.455 318.259,55.749 317.496,56.175 317.107 C 56.602 316.718,57.187 316.400,57.475 316.400 C 57.764 316.400,58.324 316.085,58.721 315.700 C 59.117 315.315,60.554 314.460,61.914 313.800 C 63.274 313.140,64.390 312.465,64.393 312.300 C 64.397 312.135,64.648 312.000,64.951 312.000 C 65.254 312.000,65.726 311.730,66.000 311.400 C 66.949 310.257,68.231 310.711,70.054 312.835 C 71.014 313.955,72.295 315.334,72.900 315.901 C 73.505 316.468,74.000 317.076,74.000 317.251 C 74.000 317.700,77.451 321.200,77.895 321.200 C 78.096 321.200,78.697 321.690,79.230 322.288 C 79.953 323.099,79.996 323.228,79.400 322.795 C 77.957 321.747,86.011 329.210,88.644 331.361 C 89.329 331.920,89.996 332.270,90.128 332.139 C 90.259 332.008,89.757 333.041,89.012 334.435 C 88.267 335.829,87.763 337.139,87.891 337.347 C 88.019 337.554,87.930 337.604,87.693 337.457 C 87.438 337.300,86.837 338.091,86.219 339.396 C 85.646 340.608,85.047 341.601,84.888 341.602 C 84.730 341.603,84.154 342.668,83.608 343.969 C 83.063 345.270,82.508 346.267,82.374 346.184 C 82.077 346.000,80.800 348.608,80.800 349.399 C 80.800 349.714,80.452 350.158,80.027 350.386 C 79.602 350.613,79.132 351.204,78.982 351.700 C 78.832 352.195,78.088 353.549,77.327 354.709 C 75.702 357.189,75.736 357.996,77.500 358.772 C 78.215 359.087,78.800 359.549,78.800 359.800 C 78.800 360.051,79.655 360.696,80.700 361.235 C 81.745 361.773,82.640 362.391,82.689 362.607 C 82.737 362.823,83.343 363.304,84.035 363.675 C 84.727 364.046,85.643 364.725,86.071 365.184 C 86.498 365.642,87.017 365.913,87.224 365.785 C 87.431 365.657,87.600 365.743,87.600 365.976 C 87.600 366.209,87.804 366.400,88.053 366.400 C 88.302 366.400,88.803 366.743,89.166 367.161 C 89.529 367.580,90.631 368.335,91.613 368.839 C 92.596 369.343,93.544 369.990,93.720 370.278 C 93.896 370.565,94.256 370.800,94.520 370.801 C 94.784 370.801,96.056 371.519,97.346 372.396 C 98.637 373.273,99.819 373.912,99.974 373.816 C 100.128 373.721,100.704 374.059,101.253 374.569 C 101.802 375.078,102.923 375.737,103.743 376.034 C 104.564 376.331,105.542 376.859,105.918 377.208 C 106.293 377.557,107.635 378.271,108.900 378.795 C 110.165 379.319,111.200 379.872,111.200 380.025 C 111.200 380.178,112.325 380.718,113.700 381.226 C 115.075 381.734,116.317 382.322,116.460 382.533 C 116.602 382.744,117.017 382.802,117.380 382.663 C 117.744 382.523,117.944 382.566,117.826 382.758 C 117.614 383.101,118.302 383.436,121.300 384.452 C 122.125 384.732,122.800 385.105,122.800 385.280 C 122.800 385.456,123.214 385.600,123.720 385.600 C 124.226 385.600,124.826 385.786,125.053 386.013 C 125.645 386.605,126.800 386.048,126.800 385.171 C 126.800 384.763,127.148 384.242,127.573 384.014 C 127.998 383.787,128.468 383.196,128.618 382.700 C 128.768 382.205,129.489 380.887,130.220 379.770 C 130.951 378.654,131.672 377.251,131.823 376.652 C 131.973 376.053,132.190 375.656,132.304 375.771 C 132.538 376.005,134.052 373.330,134.180 372.456 C 134.226 372.144,134.529 371.689,134.855 371.445 C 135.180 371.200,135.877 370.100,136.405 369.000 C 136.932 367.900,137.677 366.661,138.062 366.246 C 138.446 365.831,138.868 364.999,139.001 364.396 C 139.353 362.791,140.932 361.395,141.551 362.141 C 141.810 362.453,143.862 363.217,146.111 363.837 C 148.360 364.458,150.290 365.086,150.400 365.233 C 150.585 365.479,152.283 365.935,154.200 366.252 C 156.003 366.551,159.013 367.374,159.200 367.620 C 159.375 367.850,160.733 368.135,165.800 369.007 C 166.460 369.120,167.810 369.328,168.800 369.468 C 171.302 369.822,171.187 369.094,171.194 384.675 C 171.200 397.819,171.246 398.749,171.900 398.729 C 172.285 398.718,173.500 398.819,174.600 398.954 C 180.268 399.649,184.800 399.800,200.000 399.800 C 215.244 399.800,220.142 399.643,226.500 398.948 L 228.800 398.697 228.800 384.325 C 228.800 374.443,228.930 370.033,229.218 370.211 C 229.447 370.353,229.868 370.275,230.153 370.039 C 230.438 369.802,231.465 369.517,232.436 369.404 C 235.821 369.012,241.402 367.859,241.641 367.502 C 241.774 367.304,242.314 367.077,242.841 366.996 C 245.858 366.535,246.445 366.404,247.135 366.035 C 247.553 365.811,247.991 365.724,248.108 365.842 C 248.226 365.959,249.195 365.657,250.261 365.170 C 251.327 364.683,252.560 364.244,253.000 364.193 C 253.440 364.143,253.800 364.065,253.800 364.020 C 253.800 363.976,254.149 363.873,254.576 363.794 C 256.507 363.433,257.217 363.151,257.016 362.826 C 256.897 362.633,257.178 362.574,257.640 362.695 C 258.123 362.821,258.622 362.688,258.810 362.383 C 259.269 361.641,260.217 362.474,261.276 364.548 C 261.725 365.429,262.342 366.399,262.646 366.703 C 262.951 367.008,263.200 367.513,263.200 367.825 C 263.200 368.138,263.542 368.607,263.960 368.868 C 264.378 369.129,264.632 369.571,264.525 369.851 C 264.418 370.131,264.796 370.862,265.365 371.476 C 265.934 372.090,266.400 372.874,266.400 373.218 C 266.400 373.563,266.820 374.414,267.334 375.110 C 267.848 375.807,268.595 377.102,268.995 377.988 C 269.394 378.875,269.874 379.600,270.061 379.600 C 270.247 379.600,270.400 379.848,270.400 380.151 C 270.400 380.454,270.670 380.926,271.000 381.200 C 271.330 381.474,271.600 382.037,271.600 382.452 C 271.600 382.866,272.050 383.597,272.600 384.075 C 273.150 384.553,273.600 385.275,273.600 385.680 C 273.600 386.275,273.810 386.368,274.700 386.170 C 276.829 385.697,277.210 385.539,277.010 385.216 C 276.899 385.036,277.301 384.800,277.904 384.691 C 279.394 384.421,283.752 382.796,284.000 382.417 C 284.290 381.974,286.421 380.955,287.700 380.649 C 288.305 380.503,288.800 380.230,288.800 380.041 C 288.800 379.852,289.886 379.291,291.213 378.795 C 292.540 378.299,293.532 377.799,293.417 377.684 C 293.302 377.569,294.230 377.059,295.480 376.551 C 296.730 376.043,297.908 375.351,298.096 375.014 C 298.285 374.676,298.629 374.400,298.859 374.400 C 299.685 374.400,301.989 373.105,301.776 372.761 C 301.656 372.567,301.804 372.503,302.104 372.619 C 302.405 372.734,302.982 372.462,303.387 372.014 C 303.792 371.566,304.416 371.200,304.773 371.200 C 305.130 371.200,306.013 370.660,306.736 370.000 C 307.458 369.340,308.308 368.800,308.625 368.800 C 308.941 368.800,309.200 368.620,309.200 368.400 C 309.200 368.180,309.461 368.000,309.780 368.000 C 310.099 368.000,310.504 367.775,310.680 367.500 C 310.856 367.225,311.685 366.683,312.521 366.296 C 313.358 365.909,313.952 365.445,313.840 365.265 C 313.729 365.085,314.304 364.640,315.119 364.277 C 315.933 363.913,317.230 363.073,318.000 362.409 C 318.770 361.745,319.593 361.201,319.828 361.201 C 320.063 361.200,320.632 360.795,321.092 360.300 C 321.551 359.805,322.394 359.077,322.964 358.681 C 324.227 357.805,324.326 356.274,323.172 355.465 C 322.650 355.100,322.522 354.826,322.826 354.725 C 323.173 354.609,323.139 354.396,322.700 353.957 C 322.366 353.623,321.688 352.551,321.193 351.575 C 320.698 350.599,320.144 349.704,319.962 349.586 C 319.780 349.468,319.348 348.695,319.003 347.869 C 318.657 347.042,318.110 346.264,317.787 346.140 C 317.464 346.016,317.200 345.614,317.200 345.246 C 317.200 344.879,316.889 344.134,316.509 343.592 C 316.129 343.049,315.781 342.352,315.736 342.043 C 315.690 341.733,315.485 341.372,315.279 341.240 C 315.073 341.108,314.412 340.023,313.809 338.828 C 313.207 337.634,312.463 336.406,312.157 336.100 C 311.851 335.794,311.600 335.308,311.600 335.020 C 311.600 334.733,311.330 334.274,311.000 334.000 C 310.670 333.726,310.400 333.370,310.400 333.209 C 310.400 332.799,312.397 330.687,312.414 331.079 C 312.422 331.256,312.827 330.940,313.314 330.378 C 313.801 329.817,314.695 329.047,315.300 328.669 C 315.905 328.291,316.400 327.716,316.400 327.391 C 316.400 327.066,316.583 326.800,316.806 326.800 C 317.363 326.800,326.400 317.782,326.400 317.226 C 326.400 316.981,326.853 316.608,327.407 316.397 C 327.961 316.187,328.575 315.593,328.771 315.077 C 328.967 314.562,329.609 313.824,330.198 313.438 C 330.787 313.052,331.179 312.645,331.068 312.535 C 330.758 312.225,332.326 310.800,332.976 310.800 C 333.293 310.800,333.655 310.966,333.781 311.169 C 333.906 311.372,334.549 311.657,335.208 311.802 C 335.867 311.947,336.320 312.205,336.214 312.377 C 336.041 312.657,338.959 314.200,339.664 314.200 C 339.824 314.200,340.332 314.605,340.793 315.100 C 341.254 315.595,341.984 316.000,342.416 316.000 C 342.847 316.000,343.200 316.168,343.200 316.373 C 343.200 316.578,343.591 316.870,344.069 317.022 C 344.547 317.174,345.309 317.643,345.761 318.064 C 346.214 318.486,347.038 318.936,347.592 319.063 C 348.146 319.191,348.780 319.517,349.000 319.787 C 349.521 320.426,352.000 321.706,352.000 321.335 C 352.000 321.179,352.495 321.492,353.100 322.031 C 356.177 324.775,359.108 324.830,359.187 322.146 C 359.194 321.896,359.650 321.397,360.200 321.037 C 360.750 320.676,361.200 320.161,361.201 319.891 C 361.201 319.621,361.745 318.770,362.409 318.000 C 363.073 317.230,363.913 315.933,364.277 315.119 C 364.640 314.304,365.077 313.724,365.249 313.830 C 365.420 313.936,365.755 313.657,365.994 313.211 C 366.233 312.765,366.325 312.400,366.198 312.400 C 366.071 312.400,366.425 311.907,366.984 311.304 C 367.543 310.701,368.000 309.981,368.000 309.704 C 368.000 309.427,368.180 309.200,368.400 309.200 C 368.620 309.200,368.800 308.941,368.800 308.625 C 368.800 308.308,369.340 307.458,370.000 306.736 C 370.660 306.013,371.200 305.216,371.200 304.965 C 371.200 304.713,371.572 304.035,372.026 303.458 C 372.480 302.880,372.722 302.198,372.564 301.942 C 372.396 301.670,372.450 301.584,372.694 301.735 C 373.088 301.978,374.400 299.767,374.400 298.859 C 374.400 298.629,374.676 298.285,375.014 298.096 C 375.351 297.908,376.043 296.730,376.551 295.480 C 377.059 294.230,377.570 293.304,377.688 293.421 C 377.805 293.538,378.008 293.357,378.138 293.017 C 378.268 292.678,378.201 292.400,377.987 292.400 C 377.774 292.400,377.960 292.040,378.400 291.600 C 378.840 291.160,379.200 290.558,379.200 290.261 C 379.200 289.965,379.560 289.307,380.000 288.800 C 380.440 288.293,380.800 287.626,380.800 287.319 C 380.800 286.679,381.960 284.300,382.417 284.000 C 382.796 283.752,384.421 279.394,384.691 277.904 C 384.800 277.301,385.036 276.899,385.216 277.010 C 385.396 277.121,385.645 276.849,385.771 276.406 C 385.897 275.963,386.100 275.247,386.222 274.815 C 386.396 274.200,386.135 273.900,385.022 273.435 C 384.240 273.108,383.600 272.666,383.600 272.452 C 383.600 272.238,383.072 271.948,382.428 271.806 C 381.783 271.664,381.041 271.290,380.779 270.974 C 380.517 270.658,380.054 270.400,379.751 270.400 C 379.448 270.400,379.200 270.254,379.200 270.076 C 379.200 269.898,378.212 269.313,377.004 268.776 C 375.796 268.239,374.806 267.670,374.804 267.510 C 374.802 267.351,374.260 266.941,373.600 266.600 C 372.940 266.259,372.400 266.083,372.400 266.210 C 372.400 266.337,371.798 265.982,371.062 265.420 C 370.326 264.859,369.539 264.400,369.311 264.400 C 369.084 264.400,368.683 264.142,368.421 263.826 C 368.159 263.510,367.416 263.135,366.769 262.993 C 366.122 262.851,365.667 262.614,365.758 262.467 C 365.849 262.320,365.041 261.759,363.962 261.221 C 362.161 260.323,362.001 260.126,362.006 258.821 C 362.010 257.852,362.124 257.576,362.363 257.953 C 362.678 258.452,363.203 257.193,363.427 255.400 C 363.455 255.180,363.593 254.730,363.734 254.400 C 363.875 254.070,364.055 253.440,364.133 253.000 C 364.435 251.305,364.938 249.790,365.272 249.570 C 365.463 249.444,365.702 248.814,365.801 248.170 C 366.162 245.836,367.353 240.995,367.614 240.800 C 367.982 240.525,369.220 233.445,369.555 229.700 C 369.590 229.310,372.799 229.200,384.145 229.200 L 398.690 229.200 398.941 226.700 C 399.661 219.526,399.800 215.204,399.800 200.000 C 399.800 184.918,399.657 180.673,398.943 174.600 C 398.814 173.500,398.715 172.330,398.722 172.000 C 398.734 171.475,396.912 171.414,384.222 171.514 L 369.709 171.628 369.446 169.914 C 369.301 168.971,369.102 167.660,369.004 167.000 C 368.347 162.584,367.885 160.400,367.609 160.400 C 367.434 160.400,367.179 159.815,367.042 159.100 C 366.021 153.751,365.477 151.600,365.148 151.600 C 364.957 151.600,364.800 151.319,364.800 150.975 C 364.800 150.063,362.744 143.035,362.409 142.800 C 361.737 142.329,361.577 140.400,362.210 140.400 C 362.554 140.400,363.320 139.950,363.913 139.400 C 364.507 138.850,365.296 138.400,365.667 138.400 C 366.039 138.400,366.592 138.151,366.897 137.846 C 367.201 137.542,368.238 136.891,369.200 136.400 C 370.162 135.909,371.199 135.258,371.503 134.954 C 371.808 134.649,372.292 134.400,372.580 134.400 C 372.867 134.400,373.326 134.130,373.600 133.800 C 373.874 133.470,374.405 133.200,374.779 133.200 C 375.154 133.200,375.876 132.758,376.383 132.218 C 376.891 131.677,377.417 131.270,377.553 131.313 C 377.955 131.439,380.400 130.328,380.400 130.020 C 380.400 129.864,381.300 129.315,382.400 128.800 C 383.500 128.285,384.400 127.734,384.400 127.575 C 384.400 127.416,384.850 127.174,385.400 127.036 C 386.417 126.780,386.797 125.493,386.000 125.000 C 385.780 124.864,385.600 124.313,385.600 123.776 C 385.600 123.239,385.456 122.800,385.280 122.800 C 385.105 122.800,384.732 122.125,384.452 121.300 C 383.436 118.302,383.101 117.614,382.758 117.826 C 382.566 117.944,382.523 117.744,382.663 117.380 C 382.802 117.017,382.754 116.602,382.555 116.460 C 382.355 116.317,381.758 115.120,381.227 113.800 C 380.696 112.480,380.135 111.310,379.981 111.200 C 379.827 111.090,379.279 110.010,378.764 108.800 C 378.248 107.590,377.545 106.293,377.200 105.918 C 376.856 105.542,376.335 104.577,376.044 103.772 C 375.753 102.967,375.129 101.865,374.658 101.322 C 374.186 100.780,373.778 100.170,373.750 99.968 C 373.723 99.766,373.678 99.446,373.650 99.258 C 373.623 99.069,372.970 98.090,372.200 97.082 C 371.430 96.073,370.800 94.976,370.800 94.644 C 370.800 94.312,370.553 93.896,370.252 93.720 C 369.951 93.544,369.295 92.590,368.795 91.600 C 368.294 90.610,367.551 89.509,367.143 89.153 C 366.734 88.797,366.400 88.302,366.400 88.053 C 366.400 87.804,366.209 87.600,365.976 87.600 C 365.743 87.600,365.657 87.431,365.785 87.225 C 365.912 87.018,365.763 86.703,365.453 86.525 C 365.143 86.346,364.437 85.390,363.884 84.400 C 363.331 83.410,362.729 82.600,362.546 82.600 C 362.363 82.600,361.773 81.745,361.235 80.700 C 360.696 79.655,360.022 78.800,359.736 78.800 C 359.449 78.800,359.104 78.357,358.968 77.816 C 358.524 76.047,354.400 75.857,354.400 77.606 C 354.400 77.744,353.500 78.264,352.400 78.761 C 351.300 79.258,350.400 79.831,350.400 80.033 C 350.400 80.235,350.122 80.400,349.782 80.400 C 349.442 80.400,348.749 80.814,348.243 81.320 C 347.737 81.827,347.094 82.165,346.815 82.072 C 346.536 81.979,346.193 82.082,346.054 82.301 C 345.721 82.823,342.756 84.400,342.106 84.400 C 341.828 84.400,341.600 84.571,341.600 84.779 C 341.600 84.987,340.655 85.632,339.500 86.210 C 338.345 86.789,336.827 87.699,336.127 88.232 C 335.426 88.764,334.584 89.200,334.255 89.200 C 333.926 89.200,333.363 89.494,333.004 89.853 C 332.399 90.458,332.301 90.436,331.694 89.553 C 331.334 89.029,330.130 87.659,329.019 86.508 C 327.909 85.357,326.010 83.256,324.800 81.839 C 323.590 80.422,322.539 79.432,322.464 79.639 C 322.330 80.011,321.070 78.619,320.760 77.756 C 320.672 77.511,319.700 76.546,318.600 75.611 C 317.500 74.676,316.122 73.494,315.537 72.985 C 314.952 72.476,314.412 72.091,314.337 72.130 C 314.262 72.168,314.245 72.125,314.301 72.032 C 314.468 71.755,313.108 70.402,312.638 70.378 C 311.373 70.314,310.253 67.957,310.937 66.799 C 311.302 66.182,311.600 65.455,311.600 65.184 C 311.600 64.913,312.050 64.275,312.600 63.765 C 313.150 63.255,313.600 62.492,313.600 62.068 C 313.600 61.645,313.870 61.074,314.200 60.800 C 314.530 60.526,314.800 60.054,314.800 59.751 C 314.800 59.448,314.946 59.200,315.124 59.200 C 315.302 59.200,315.887 58.212,316.424 57.004 C 316.961 55.796,317.530 54.806,317.690 54.804 C 317.849 54.802,318.259 54.260,318.600 53.600 C 318.941 52.940,319.083 52.400,318.914 52.400 C 318.746 52.400,319.101 51.943,319.704 51.384 C 320.307 50.825,320.800 50.037,320.800 49.633 C 320.800 49.229,321.070 48.674,321.400 48.400 C 321.730 48.126,322.000 47.669,322.000 47.384 C 322.000 47.100,322.143 46.807,322.318 46.733 C 323.830 46.099,324.597 41.600,323.193 41.600 C 322.984 41.600,322.316 41.154,321.707 40.609 C 320.084 39.157,315.655 36.000,315.241 36.000 C 315.045 36.000,314.460 35.553,313.942 35.007 C 313.424 34.461,312.867 34.011,312.704 34.007 C 312.541 34.003,311.225 33.190,309.779 32.200 C 308.333 31.210,306.861 30.400,306.508 30.400 C 306.155 30.400,305.979 30.287,306.117 30.150 C 306.403 29.864,300.904 26.450,298.800 25.607 C 298.030 25.299,297.264 24.825,297.097 24.553 C 296.930 24.282,296.141 23.844,295.343 23.581 C 294.544 23.318,293.277 22.685,292.526 22.176 C 291.775 21.666,290.540 21.044,289.780 20.794 C 289.021 20.543,288.400 20.172,288.400 19.969 C 288.400 19.766,288.219 19.600,287.998 19.600 C 287.778 19.600,285.933 18.813,283.898 17.851 C 281.864 16.889,279.485 15.872,278.611 15.591 C 277.737 15.309,276.779 14.836,276.482 14.540 C 275.144 13.202,271.457 16.017,272.717 17.415 C 272.873 17.587,272.786 17.605,272.524 17.455 C 272.218 17.280,271.717 17.902,271.126 19.191 C 270.619 20.296,270.085 21.200,269.938 21.200 C 269.791 21.200,269.263 22.055,268.763 23.100 C 268.264 24.145,267.685 25.115,267.476 25.255 C 267.268 25.396,267.221 25.711,267.372 25.955 C 267.524 26.200,267.460 26.400,267.232 26.400 C 267.003 26.400,266.449 27.120,266.000 28.000 C 265.551 28.880,265.304 29.600,265.450 29.600 C 265.597 29.600,265.241 30.041,264.658 30.581 C 264.076 31.120,263.600 31.806,263.600 32.105 C 263.600 32.404,263.224 33.052,262.765 33.545 C 262.258 34.089,262.031 34.704,262.186 35.108 C 262.327 35.475,262.311 35.645,262.151 35.485 C 261.787 35.120,260.406 37.164,260.403 38.073 C 260.399 38.955,257.932 38.748,255.511 37.662 C 253.518 36.769,252.516 36.444,250.942 36.183 C 248.763 35.821,246.000 35.017,246.000 34.744 C 246.000 34.594,245.235 34.343,244.300 34.188 C 243.365 34.033,242.240 33.821,241.800 33.717 C 240.901 33.505,240.514 33.430,238.100 33.000 C 237.165 32.834,236.400 32.563,236.400 32.399 C 236.400 32.235,234.684 31.865,232.586 31.577 L 228.772 31.054 228.886 16.357 L 229.000 1.660 227.400 1.425 C 226.520 1.295,224.630 1.094,223.200 0.977 C 221.770 0.861,219.700 0.657,218.600 0.525 C 216.283 0.247,187.038 -0.100,186.776 0.148 M257.298 127.376 C 263.963 129.156,270.300 132.626,275.381 137.279 L 277.432 139.157 280.826 138.416 C 284.616 137.588,291.492 135.296,294.711 133.789 C 295.872 133.245,296.904 132.800,297.005 132.800 C 297.106 132.800,298.651 131.991,300.438 131.003 C 304.109 128.972,304.605 128.988,303.752 131.109 C 300.277 139.742,293.597 148.194,287.362 151.847 C 284.710 153.400,303.765 148.376,307.136 146.633 C 310.723 144.778,310.383 145.858,305.344 152.330 C 303.508 154.689,294.010 164.039,291.500 165.960 L 289.200 167.720 289.177 173.560 C 289.128 185.757,286.530 200.545,282.353 212.400 C 268.153 252.706,236.166 281.559,196.400 289.932 C 166.457 296.237,136.214 291.756,110.600 277.222 C 104.867 273.969,104.017 272.960,107.358 273.377 C 112.629 274.036,130.874 273.143,132.484 272.148 C 132.663 272.038,134.562 271.518,136.704 270.993 C 143.867 269.240,154.329 264.706,160.200 260.812 C 161.520 259.936,163.365 258.722,164.300 258.113 C 166.551 256.647,166.490 256.555,163.057 256.244 C 161.439 256.097,159.504 255.791,158.757 255.564 C 158.011 255.337,156.475 254.899,155.344 254.592 C 149.408 252.978,143.625 249.329,137.977 243.632 C 133.563 239.179,132.693 237.959,129.998 232.449 C 127.709 227.768,127.505 226.598,129.038 226.948 C 131.574 227.527,138.301 227.683,141.199 227.230 C 144.024 226.789,145.942 226.000,144.189 226.000 C 138.818 226.000,125.745 216.858,121.000 209.785 C 120.120 208.473,119.295 207.310,119.166 207.200 C 117.026 205.367,113.200 192.787,113.200 187.580 C 113.200 184.310,112.897 184.392,117.637 186.371 C 120.768 187.678,128.252 189.600,130.209 189.600 C 130.497 189.600,128.789 187.665,126.414 185.300 C 120.689 179.600,116.496 172.794,115.234 167.153 C 115.006 166.136,114.648 164.853,114.439 164.301 C 112.139 158.252,113.526 145.854,117.471 137.204 C 119.122 133.583,119.510 133.397,121.083 135.477 C 124.394 139.856,135.131 149.893,141.326 154.400 C 142.384 155.170,143.734 156.174,144.325 156.631 C 157.540 166.842,181.413 175.315,202.824 177.393 L 205.449 177.647 204.902 174.124 C 203.665 166.157,206.061 152.487,209.412 148.400 C 209.682 148.070,210.206 147.202,210.577 146.472 C 218.119 131.589,239.835 122.714,257.298 127.376 " stroke="none" fill="#54acec" fill-rule="evenodd"></path><path id="path2" d="M228.981 16.800 C 228.981 24.830,229.034 28.115,229.099 24.100 C 229.165 20.085,229.165 13.515,229.099 9.500 C 229.034 5.485,228.981 8.770,228.981 16.800 M244.500 126.296 C 245.765 126.375,247.835 126.375,249.100 126.296 C 250.365 126.216,249.330 126.151,246.800 126.151 C 244.270 126.151,243.235 126.216,244.500 126.296 M275.183 137.300 C 276.164 138.345,277.019 139.200,277.083 139.200 C 277.384 139.200,277.066 138.841,275.300 137.183 L 273.400 135.400 275.183 137.300 M127.583 142.900 C 129.241 144.666,129.600 144.984,129.600 144.683 C 129.600 144.619,128.745 143.764,127.700 142.783 L 125.800 141.000 127.583 142.900 M113.328 155.200 C 113.328 156.630,113.401 157.215,113.489 156.500 C 113.578 155.785,113.578 154.615,113.489 153.900 C 113.401 153.185,113.328 153.770,113.328 155.200 M294.975 162.900 L 293.800 164.200 295.100 163.025 C 295.815 162.379,296.400 161.794,296.400 161.725 C 296.400 161.416,296.070 161.688,294.975 162.900 M204.542 168.200 C 204.541 170.180,204.608 171.040,204.692 170.112 C 204.776 169.184,204.777 167.564,204.695 166.512 C 204.612 165.460,204.543 166.220,204.542 168.200 M288.934 170.400 C 288.934 172.050,289.005 172.725,289.091 171.900 C 289.178 171.075,289.178 169.725,289.091 168.900 C 289.005 168.075,288.934 168.750,288.934 170.400 M9.526 171.500 C 13.555 171.565,20.035 171.565,23.926 171.499 C 27.817 171.434,24.520 171.380,16.600 171.381 C 8.680 171.381,5.497 171.434,9.526 171.500 M376.726 171.500 C 380.755 171.565,387.235 171.565,391.126 171.499 C 395.017 171.434,391.720 171.380,383.800 171.381 C 375.880 171.381,372.697 171.434,376.726 171.500 M288.942 177.000 C 288.941 178.980,289.008 179.840,289.092 178.912 C 289.176 177.984,289.177 176.364,289.095 175.312 C 289.012 174.260,288.943 175.020,288.942 177.000 M288.493 183.200 C 288.493 183.970,288.575 184.285,288.676 183.900 C 288.776 183.515,288.776 182.885,288.676 182.500 C 288.575 182.115,288.493 182.430,288.493 183.200 M288.093 187.200 C 288.093 187.970,288.175 188.285,288.276 187.900 C 288.376 187.515,288.376 186.885,288.276 186.500 C 288.175 186.115,288.093 186.430,288.093 187.200 M162.922 259.029 L 161.800 260.058 163.100 259.154 C 163.815 258.657,164.400 258.193,164.400 258.125 C 164.400 257.809,163.958 258.080,162.922 259.029 M105.200 273.576 C 105.200 273.783,105.408 274.081,105.662 274.238 C 105.938 274.409,106.015 274.349,105.855 274.089 C 105.693 273.827,106.026 273.588,106.693 273.487 C 107.732 273.330,107.720 273.316,106.500 273.260 C 105.785 273.227,105.200 273.369,105.200 273.576 M110.691 273.889 C 111.401 273.977,112.661 273.979,113.491 273.892 C 114.321 273.805,113.740 273.733,112.200 273.731 C 110.660 273.729,109.981 273.800,110.691 273.889 M117.091 273.889 C 117.801 273.977,119.061 273.979,119.891 273.892 C 120.721 273.805,120.140 273.733,118.600 273.731 C 117.060 273.729,116.381 273.800,117.091 273.889 M116.400 280.196 C 116.400 280.470,118.849 281.684,119.032 281.501 C 119.119 281.414,118.562 281.044,117.795 280.678 C 117.028 280.312,116.400 280.095,116.400 280.196 M167.500 292.695 C 168.655 292.776,170.545 292.776,171.700 292.695 C 172.855 292.614,171.910 292.548,169.600 292.548 C 167.290 292.548,166.345 292.614,167.500 292.695 M228.981 384.200 C 228.980 392.120,229.034 395.417,229.099 391.526 C 229.165 387.635,229.165 381.155,229.100 377.126 C 229.034 373.097,228.981 376.280,228.981 384.200 " stroke="none" fill="#74bcf4" fill-rule="evenodd"></path><path id="path3" d="M244.515 126.696 C 245.788 126.776,247.768 126.775,248.915 126.694 C 250.062 126.614,249.020 126.549,246.600 126.550 C 244.180 126.551,243.242 126.616,244.515 126.696 M275.600 138.200 C 276.346 138.970,277.047 139.600,277.157 139.600 C 277.267 139.600,276.746 138.970,276.000 138.200 C 275.254 137.430,274.553 136.800,274.443 136.800 C 274.333 136.800,274.854 137.430,275.600 138.200 M127.000 142.800 C 128.083 143.900,129.060 144.800,129.170 144.800 C 129.280 144.800,128.483 143.900,127.400 142.800 C 126.317 141.700,125.340 140.800,125.230 140.800 C 125.120 140.800,125.917 141.700,127.000 142.800 M132.800 148.200 C 133.546 148.970,134.247 149.600,134.357 149.600 C 134.467 149.600,133.946 148.970,133.200 148.200 C 132.454 147.430,131.753 146.800,131.643 146.800 C 131.533 146.800,132.054 147.430,132.800 148.200 M304.000 148.200 C 303.450 148.514,303.180 148.772,303.400 148.772 C 303.620 148.772,304.250 148.514,304.800 148.200 C 305.350 147.886,305.620 147.628,305.400 147.628 C 305.180 147.628,304.550 147.886,304.000 148.200 M287.100 151.246 C 285.990 152.074,285.663 152.800,286.400 152.800 C 286.620 152.800,286.755 152.644,286.700 152.453 C 286.645 152.262,287.050 151.728,287.600 151.266 C 288.884 150.188,288.536 150.174,287.100 151.246 M295.200 150.800 C 294.376 151.064,294.341 151.126,295.000 151.154 C 295.440 151.173,296.070 151.013,296.400 150.800 C 297.101 150.347,296.614 150.347,295.200 150.800 M301.578 155.900 L 300.200 157.400 301.700 156.022 C 303.096 154.738,303.384 154.400,303.078 154.400 C 303.012 154.400,302.337 155.075,301.578 155.900 M295.578 161.900 L 294.200 163.400 295.700 162.022 C 297.096 160.738,297.384 160.400,297.078 160.400 C 297.012 160.400,296.337 161.075,295.578 161.900 M288.577 167.717 C 288.468 168.001,288.429 171.016,288.491 174.417 L 288.603 180.600 288.801 173.899 C 288.997 167.315,288.974 166.682,288.577 167.717 M205.600 176.973 C 205.600 177.292,205.111 177.621,204.500 177.713 C 203.476 177.869,203.490 177.884,204.700 177.940 C 205.753 177.989,206.000 177.848,206.000 177.200 C 206.000 176.760,205.910 176.400,205.800 176.400 C 205.690 176.400,205.600 176.658,205.600 176.973 M288.093 183.200 C 288.093 183.970,288.175 184.285,288.276 183.900 C 288.376 183.515,288.376 182.885,288.276 182.500 C 288.175 182.115,288.093 182.430,288.093 183.200 M113.714 189.400 C 113.717 190.500,113.795 190.903,113.887 190.295 C 113.979 189.686,113.977 188.786,113.882 188.295 C 113.787 187.803,113.711 188.300,113.714 189.400 M133.913 227.895 C 135.076 227.976,136.876 227.976,137.913 227.893 C 138.951 227.811,138.000 227.745,135.800 227.746 C 133.600 227.747,132.751 227.814,133.913 227.895 M256.378 255.100 L 255.000 256.600 256.500 255.222 C 257.896 253.938,258.184 253.600,257.878 253.600 C 257.812 253.600,257.137 254.275,256.378 255.100 M247.775 263.700 L 246.600 265.000 247.900 263.825 C 248.615 263.179,249.200 262.594,249.200 262.525 C 249.200 262.216,248.870 262.488,247.775 263.700 M123.700 273.876 C 124.085 273.976,124.715 273.976,125.100 273.876 C 125.485 273.775,125.170 273.693,124.400 273.693 C 123.630 273.693,123.315 273.775,123.700 273.876 M110.691 274.289 C 111.401 274.377,112.661 274.379,113.491 274.292 C 114.321 274.205,113.740 274.133,112.200 274.131 C 110.660 274.129,109.981 274.200,110.691 274.289 M117.507 274.290 C 118.226 274.379,119.306 274.377,119.907 274.286 C 120.508 274.195,119.920 274.122,118.600 274.124 C 117.280 274.126,116.788 274.201,117.507 274.290 M113.200 278.179 C 113.200 278.289,113.740 278.659,114.400 279.000 C 115.060 279.341,115.600 279.531,115.600 279.421 C 115.600 279.311,115.060 278.941,114.400 278.600 C 113.740 278.259,113.200 278.069,113.200 278.179 M220.400 281.400 C 219.850 281.714,219.580 281.972,219.800 281.972 C 220.020 281.972,220.650 281.714,221.200 281.400 C 221.750 281.086,222.020 280.828,221.800 280.828 C 221.580 280.828,220.950 281.086,220.400 281.400 M140.833 288.944 C 140.925 289.023,141.540 289.208,142.200 289.356 C 143.076 289.552,143.238 289.515,142.800 289.218 C 142.260 288.853,140.432 288.598,140.833 288.944 M154.100 291.476 C 154.485 291.576,155.115 291.576,155.500 291.476 C 155.885 291.375,155.570 291.293,154.800 291.293 C 154.030 291.293,153.715 291.375,154.100 291.476 M184.305 291.483 C 184.802 291.579,185.522 291.575,185.905 291.475 C 186.287 291.375,185.880 291.296,185.000 291.301 C 184.120 291.305,183.807 291.387,184.305 291.483 M161.905 292.283 C 162.402 292.379,163.122 292.375,163.505 292.275 C 163.887 292.175,163.480 292.096,162.600 292.101 C 161.720 292.105,161.407 292.187,161.905 292.283 M175.705 292.287 C 176.314 292.379,177.214 292.377,177.705 292.282 C 178.197 292.187,177.700 292.111,176.600 292.114 C 175.500 292.117,175.097 292.195,175.705 292.287 " stroke="none" fill="#bcdcfc" fill-rule="evenodd"></path><path id="path4" d="M216.800 138.600 C 215.828 139.590,215.123 140.400,215.233 140.400 C 215.343 140.400,216.228 139.590,217.200 138.600 C 218.172 137.610,218.877 136.800,218.767 136.800 C 218.657 136.800,217.772 137.610,216.800 138.600 M124.400 139.800 C 125.146 140.570,125.847 141.200,125.957 141.200 C 126.067 141.200,125.546 140.570,124.800 139.800 C 124.054 139.030,123.353 138.400,123.243 138.400 C 123.133 138.400,123.654 139.030,124.400 139.800 M293.375 146.500 L 292.200 147.800 293.500 146.625 C 294.215 145.979,294.800 145.394,294.800 145.325 C 294.800 145.016,294.470 145.288,293.375 146.500 M113.734 156.800 C 113.734 158.450,113.805 159.125,113.891 158.300 C 113.978 157.475,113.978 156.125,113.891 155.300 C 113.805 154.475,113.734 155.150,113.734 156.800 M298.989 158.900 L 296.200 161.800 299.100 159.011 C 300.695 157.477,302.000 156.172,302.000 156.111 C 302.000 155.817,301.580 156.206,298.989 158.900 M126.000 185.000 C 127.195 186.210,128.263 187.200,128.373 187.200 C 128.483 187.200,127.595 186.210,126.400 185.000 C 125.205 183.790,124.137 182.800,124.027 182.800 C 123.917 182.800,124.805 183.790,126.000 185.000 M113.293 188.000 C 113.293 188.770,113.375 189.085,113.476 188.700 C 113.576 188.315,113.576 187.685,113.476 187.300 C 113.375 186.915,113.293 187.230,113.293 188.000 M138.200 244.000 C 139.506 245.320,140.665 246.400,140.775 246.400 C 140.885 246.400,139.906 245.320,138.600 244.000 C 137.294 242.680,136.135 241.600,136.025 241.600 C 135.915 241.600,136.894 242.680,138.200 244.000 M164.908 256.292 C 165.869 256.392,166.319 256.608,166.147 256.886 C 165.983 257.151,166.062 257.209,166.345 257.034 C 167.180 256.518,166.390 255.998,164.876 256.067 L 163.400 256.134 164.908 256.292 M250.378 261.500 L 249.000 263.000 250.500 261.622 C 251.896 260.338,252.184 260.000,251.878 260.000 C 251.812 260.000,251.137 260.675,250.378 261.500 M107.700 273.876 C 108.085 273.976,108.715 273.976,109.100 273.876 C 109.485 273.775,109.170 273.693,108.400 273.693 C 107.630 273.693,107.315 273.775,107.700 273.876 " stroke="none" fill="#9cccf4" fill-rule="evenodd"></path></g></svg>